M48
;DRILL file {Pcbnew (2012-apr-16-27)-stable} date So 08 Jun 2014 14:57:09 CEST
;FORMAT={-:-/ absolute / metric / decimal}
FMAT,2
METRIC,TZ
T1C0.635
T2C0.813
T3C1.143
%
G90
G05
M71
T1
X175.768Y94.234
X176.022Y79.502
X177.292Y91.440
X179.324Y82.550
X191.008Y82.042
X191.516Y83.820
T2
X86.360Y70.866
X88.900Y70.866
X91.440Y70.866
X93.980Y70.866
X96.520Y70.866
X99.060Y70.866
X100.330Y89.408
X100.330Y91.948
X100.330Y94.488
X100.330Y97.028
X100.330Y99.568
X100.330Y102.108
X101.600Y70.866
X104.140Y70.866
X159.766Y90.932
X162.306Y90.932
X164.846Y90.932
X178.849Y79.474
X181.389Y79.474
X183.929Y79.474
X186.469Y79.474
X189.009Y79.474
X191.549Y79.474
T3
X137.160Y78.740
X137.160Y86.360
X139.700Y86.360
X142.240Y78.740
X142.240Y86.360
X151.130Y78.740
X151.130Y86.360
X153.670Y86.360
X156.210Y78.740
X156.210Y86.360
X165.100Y78.740
X165.100Y86.360
X167.640Y86.360
X170.180Y78.740
X170.180Y86.360
T0
M30
